<svg width="18" height="16" viewBox="0 0 18 16" fill="none" xmlns="http://www.w3.org/2000/svg">
<path d="M16.6289 1.22031C16.5139 1.11809 16.3681 1.0476 16.209 1.01733C16.0499 0.987053 15.8844 0.998292 15.7324 1.04969L1.66886 5.78125H1.66604C1.50389 5.83669 1.36494 5.93527 1.26818 6.06353C1.17141 6.19179 1.12154 6.34347 1.12539 6.49787C1.12924 6.65226 1.18661 6.80183 1.28966 6.92616C1.39272 7.05048 1.53644 7.1435 1.7012 7.1925L1.71561 7.19657L6.54257 9.02876C6.63672 9.05416 6.73671 9.05717 6.83258 9.03749C6.92845 9.0178 7.01682 8.97611 7.0889 8.91657L14.8359 2.5C14.859 2.47948 14.8864 2.46321 14.9166 2.4521C14.9467 2.441 14.9791 2.43528 15.0117 2.43528C15.0444 2.43528 15.0767 2.441 15.1068 2.4521C15.137 2.46321 15.1644 2.47948 15.1875 2.5C15.2106 2.52052 15.2289 2.54488 15.2414 2.57169C15.2539 2.5985 15.2603 2.62723 15.2603 2.65625C15.2603 2.68527 15.2539 2.714 15.2414 2.74081C15.2289 2.76762 15.2106 2.79198 15.1875 2.8125L7.96851 9.69563C7.90153 9.7597 7.85462 9.83825 7.83247 9.92347C7.81033 10.0087 7.81371 10.0976 7.84229 10.1813L9.90421 14.4744C9.90632 14.4806 9.90843 14.4863 9.91089 14.4922C10.0234 14.7819 10.3082 14.9863 10.6523 15H10.6875C10.8612 15.0009 11.0313 14.9553 11.1755 14.8691C11.3197 14.783 11.4314 14.6602 11.4961 14.5169L16.8184 2.01938C16.877 1.88415 16.8903 1.73672 16.8567 1.59491C16.8231 1.4531 16.744 1.32299 16.6289 1.22031V1.22031Z" fill="white"/>
</svg>
